# xmcd CD database file
#
# Track frame offsets:
#	183
#	22083
#	47758
#	72438
#	102000
#	121970
#	151633
#	182855
#	207685
#
# Disc length: 3139 seconds
#
# Revision: 0
# Processed by: cddbd v1.5.1PL2 Copyright (c) Steve Scherf et al.
# Submitted via: CDex 1.51
#
DISCID=7b0c4109
DTITLE=Court Of Miracles - miracle style
DYEAR=1997
DGENRE=Jazz
TTITLE0=woman has come
TTITLE1=i just wanna be there
TTITLE2=spririt soul hearted (a revolution)
TTITLE3=mr. nobody
TTITLE4=war on ya people
TTITLE5=this ol'town
TTITLE6=last station
TTITLE7=use ya voice
TTITLE8=this ol'bus
EXTD=YEAR: 1997
EXTT0=
EXTT1=
EXTT2=
EXTT3=
EXTT4=
EXTT5=
EXTT6=
EXTT7=
EXTT8=
PLAYORDER=
